<svg width="414" height="414" viewBox="0 0 414 414" fill="none" xmlns="http://www.w3.org/2000/svg">
<path d="M328.745 273.461C321.868 272.829 315.058 271.309 308.513 268.897C298.653 285.044 285.051 298.646 268.905 308.508C264.447 311.23 259.797 313.668 254.977 315.795C249.37 318.269 243.535 320.323 237.512 321.918C232.505 323.243 227.367 324.252 222.123 324.919C217.138 325.554 212.055 325.88 206.895 325.88C201.736 325.88 196.655 325.554 191.671 324.919C188.958 331.291 188.661 338.324 190.778 344.841C196.067 345.455 201.444 345.771 206.895 345.771C212.348 345.771 217.729 345.454 223.021 344.839C228.593 344.191 234.065 343.212 239.419 341.922C245.888 340.362 252.183 338.35 258.268 335.917C263.497 333.827 268.571 331.427 273.467 328.741C296.736 315.973 315.978 296.731 328.745 273.461Z" fill="#BB9557"/>
<path d="M144.895 308.512C128.747 298.65 115.144 285.046 105.282 268.898C102.561 264.442 100.126 259.792 97.9999 254.974C95.5252 249.366 93.4702 243.529 91.8755 237.504C90.5503 232.497 89.5432 227.359 88.8759 222.115C88.2418 217.131 87.9148 212.052 87.9148 206.894C87.9148 201.735 88.2416 196.655 88.8759 191.671C82.5028 188.956 75.4661 188.657 68.9473 190.775C68.3328 196.064 68.0171 201.443 68.0171 206.894C68.0171 212.344 68.3327 217.722 68.9473 223.011C69.5947 228.583 70.5747 234.057 71.8647 239.41C73.4242 245.882 75.4377 252.18 77.8708 258.266C79.961 263.495 82.3598 268.567 85.0454 273.462C97.8143 296.734 117.058 315.976 140.331 328.744C140.962 321.866 142.483 315.057 144.895 308.512Z" fill="#BB9557"/>
<path d="M224.41 77.7153C224.41 74.7594 223.946 71.8043 223.017 68.9476C217.728 68.333 212.347 68.0156 206.895 68.0156C201.445 68.0156 196.067 68.3331 190.778 68.9476C185.207 69.5949 179.735 70.572 174.382 71.8616C167.912 73.4204 161.618 75.4341 155.533 77.866C150.302 79.9566 145.227 82.3575 140.331 85.044C117.057 97.8132 97.8123 117.057 85.0436 140.331C91.9234 140.962 98.7353 142.483 105.282 144.895C115.143 128.746 128.748 115.141 144.896 105.279C149.354 102.557 154.005 100.122 158.825 97.995C164.432 95.5215 170.267 93.4664 176.291 91.8724C181.296 90.5478 186.431 89.5416 191.674 88.8745C196.658 88.2404 201.737 87.9134 206.895 87.9134C212.054 87.9134 217.136 88.2402 222.12 88.8745C223.646 85.2942 224.41 81.5046 224.41 77.7153Z" fill="#BB9557"/>
<path d="M345.772 206.894C345.772 201.443 345.456 196.062 344.841 190.772C344.194 185.2 343.215 179.729 341.926 174.376C340.367 167.906 338.353 161.611 335.921 155.527C333.831 150.299 331.433 145.226 328.748 140.331C315.981 117.059 296.739 97.817 273.468 85.0476C272.838 91.9273 271.318 98.7377 268.906 105.285C285.053 115.146 298.656 128.75 308.517 144.897C311.237 149.352 313.671 154 315.797 158.817C318.271 164.423 320.325 170.258 321.92 176.281C323.245 181.288 324.254 186.426 324.921 191.672C325.555 196.655 325.882 201.736 325.882 206.894C325.882 212.052 325.555 217.132 324.921 222.115C331.292 224.833 338.324 225.134 344.841 223.02C345.456 217.728 345.772 212.348 345.772 206.894Z" fill="#BB9557"/>
<path d="M413.795 206.899L380.91 174.014C372.997 166.101 363.465 160.728 353.353 157.896C355.794 165.149 357.709 172.64 359.053 180.322C362.166 182.183 365.103 184.455 367.786 187.138L387.547 206.894L367.786 226.655C365.103 229.338 362.165 231.61 359.051 233.471C353.727 236.653 347.888 238.636 341.923 239.416C335.231 240.291 328.38 239.653 321.919 237.505C316.893 235.835 312.102 233.25 307.807 229.75C306.622 228.785 305.476 227.752 304.372 226.648L284.618 206.894L302.086 189.418L304.365 187.138C305.47 186.033 306.62 184.997 307.807 184.031C306.376 177.605 304.355 171.412 301.8 165.51C298.054 167.912 294.509 170.746 291.241 174.014L271.494 193.77L220.025 142.308L239.781 122.554C243.048 119.287 245.882 115.743 248.283 111.996C251.117 107.573 253.349 102.867 254.976 97.9984C257.154 91.4834 258.25 84.6775 258.265 77.8694C258.277 71.9979 257.487 66.1246 255.893 60.4351C253.059 50.323 247.686 40.7903 239.774 32.878L206.894 0L174.016 32.878C166.104 40.7899 160.731 50.3216 157.899 60.4334C165.153 57.9926 172.646 56.0786 180.329 54.7356C182.189 51.6249 184.459 48.69 187.14 46.009L206.901 26.2483L226.65 46.0021C229.332 48.6849 231.603 51.622 233.465 54.7356C236.647 60.0588 238.629 65.8982 239.411 71.8632C239.665 73.8053 239.793 75.7599 239.793 77.7152C239.793 82.5008 239.03 87.2858 237.506 91.874C235.836 96.9004 233.252 101.691 229.752 105.987C228.787 107.171 227.754 108.319 226.65 109.423L206.894 129.177L187.147 109.423C186.043 108.319 185.008 107.17 184.043 105.985C177.615 107.415 171.421 109.437 165.517 111.991C167.919 115.739 170.754 119.285 174.023 122.554L193.77 142.308L142.31 193.77L122.554 174.014C119.286 170.746 115.742 167.912 111.995 165.51C107.572 162.676 102.867 160.445 97.9985 158.817C91.4835 156.639 84.6775 155.542 77.8695 155.526C71.9982 155.512 66.1244 156.303 60.4352 157.897C50.3232 160.73 40.7917 166.102 32.8798 174.014L0 206.894L32.8798 239.779C40.7924 247.691 50.3258 253.065 60.4386 255.897C57.997 248.642 56.0809 241.148 54.7374 233.464C51.624 231.603 48.6869 229.331 46.0039 226.648L26.2552 206.894L46.0039 187.145C48.6866 184.463 51.6227 182.19 54.7357 180.329C60.0588 177.146 65.8982 175.164 71.8633 174.383C78.5576 173.505 85.4107 174.14 91.8742 176.287C96.9007 177.957 101.691 180.542 105.987 184.041C107.172 185.006 108.319 186.041 109.423 187.145L129.179 206.894L109.423 226.648C108.319 227.752 107.173 228.785 105.988 229.75C107.419 236.179 109.441 242.376 111.996 248.281C115.743 245.88 119.287 243.046 122.554 239.779L142.31 220.025L193.77 271.485L174.023 291.241C170.755 294.509 167.919 298.052 165.517 301.8C162.683 306.223 160.452 310.93 158.824 315.798C156.647 322.311 155.549 329.114 155.532 335.92C155.514 341.791 156.305 347.664 157.897 353.353C160.729 363.467 166.102 373.001 174.016 380.915L206.894 413.793L239.781 380.915C247.695 373 253.067 363.465 255.899 353.349C248.645 355.791 241.154 357.705 233.471 359.049C231.608 362.165 229.335 365.106 226.65 367.791L206.901 387.538L187.147 367.784C184.464 365.101 182.192 362.165 180.331 359.052C177.148 353.729 175.166 347.89 174.384 341.925C173.508 335.232 174.141 328.381 176.288 321.919C177.957 316.892 180.54 312.103 184.038 307.806C185.004 306.62 186.041 305.471 187.147 304.365L206.894 284.609L226.65 304.37C227.753 305.474 228.787 306.62 229.752 307.805C236.181 306.374 242.378 304.352 248.283 301.797C245.882 298.05 243.048 294.508 239.781 291.241L220.025 271.485L271.487 220.018L291.241 239.779C294.508 243.046 298.052 245.88 301.799 248.281C306.222 251.116 310.926 253.348 315.795 254.976C322.308 257.153 329.113 258.25 335.919 258.267C341.79 258.28 347.662 257.491 353.351 255.897C363.464 253.065 372.997 247.692 380.91 239.779L413.795 206.899ZM258.14 206.791C241.327 224.149 223.834 241.226 206.762 258.477C189.699 241.73 172.365 224.814 156.005 207.226C171.174 189.099 189.912 172.658 206.538 155.324C215.309 163.587 223.791 172.535 232.452 181.058C241.015 189.636 249.577 198.214 258.14 206.791Z" fill="#432817"/>
</svg>
